HIERARCHY
ROOT Hips
{
	OFFSET 0.000000 0.000000 0.000000
	CHANNELS 6 Xposition Yposition Zposition Xrotation Yrotation Zrotation
	JOINT LeftUpLeg_virtual
	{
		OFFSET 0.000000 0.000000 0.000000
		CHANNELS 3 Xrotation Yrotation Zrotation
		JOINT LeftUpLeg
		{
			OFFSET 10.205400 -3.823500 0.155100
			CHANNELS 3 Xrotation Yrotation Zrotation
			JOINT LeftLeg
			{
				OFFSET 0.708757 -12.982077 0.567790
				CHANNELS 3 Xrotation Yrotation Zrotation
				JOINT LeftFoot
				{
					OFFSET -0.708756 -10.717838 -2.184338
					CHANNELS 3 Xrotation Yrotation Zrotation
					JOINT LeftToeBase
					{
						OFFSET 0.108149 -7.191104 7.560241
						CHANNELS 3 Xrotation Yrotation Zrotation
						JOINT LeftToe_End
						{
							OFFSET 0.070230 0.081724 4.490308
							CHANNELS 3 Xrotation Yrotation Zrotation
							End Site
							{
								OFFSET 0 0 0
							}
						}
					}
				}
			}
		}
	}
	JOINT RightUpLeg_virtual
	{
		OFFSET 0.000000 0.000000 0.000000
		CHANNELS 3 Xrotation Yrotation Zrotation
		JOINT RightUpLeg
		{
			OFFSET -10.205400 -3.823500 0.005500
			CHANNELS 3 Xrotation Yrotation Zrotation
			JOINT RightLeg
			{
				OFFSET -0.708756 -12.982134 0.610632
				CHANNELS 3 Xrotation Yrotation Zrotation
				JOINT RightFoot
				{
					OFFSET 0.708754 -10.717769 -1.945823
					CHANNELS 3 Xrotation Yrotation Zrotation
					JOINT RightToeBase
					{
						OFFSET -0.108140 -7.191069 7.372968
						CHANNELS 3 Xrotation Yrotation Zrotation
						JOINT RightToe_End
						{
							OFFSET -0.070227 0.081735 4.479403
							CHANNELS 3 Xrotation Yrotation Zrotation
							End Site
							{
								OFFSET 0 0 0
							}
						}
					}
				}
			}
		}
	}
	JOINT Spine_virtual
	{
		OFFSET 0.000000 0.000000 0.000000
		CHANNELS 3 Xrotation Yrotation Zrotation
		JOINT Spine
		{
			OFFSET 0.000000 6.876099 0.125700
			CHANNELS 3 Xrotation Yrotation Zrotation
			JOINT Spine1
			{
				OFFSET 0.000000 5.730043 0.104720
				CHANNELS 3 Xrotation Yrotation Zrotation
				JOINT Spine1_split
				{
					OFFSET 0.000000 5.730043 0.104720
					CHANNELS 3 Xrotation Yrotation Zrotation
					JOINT Spine2
					{
						OFFSET 0.000000 5.730043 0.104720
						CHANNELS 3 Xrotation Yrotation Zrotation
						JOINT Neck_virtual
						{
							OFFSET 0.000000 0.000000 0.000000
							CHANNELS 3 Xrotation Yrotation Zrotation
							JOINT Neck
							{
								OFFSET 0.000000 10.314075 0.188496
								CHANNELS 3 Xrotation Yrotation Zrotation
								JOINT Head
								{
									OFFSET 0.000000 7.643700 -2.377400
									CHANNELS 3 Xrotation Yrotation Zrotation
									JOINT HeadTop_End
									{
										OFFSET 0.000000 43.788605 -13.619600
										CHANNELS 3 Xrotation Yrotation Zrotation
										End Site
										{
											OFFSET 0 0 0
										}
									}
								}
							}
						}
						JOINT LeftShoulder_virtual
						{
							OFFSET 0.000000 0.000000 0.000000
							CHANNELS 3 Xrotation Yrotation Zrotation
							JOINT LeftShoulder
							{
								OFFSET 2.196100 4.412489 0.087492
								CHANNELS 3 Xrotation Yrotation Zrotation
								JOINT LeftShoulder_split
								{
									OFFSET 2.196100 4.412489 0.087492
									CHANNELS 3 Xrotation Yrotation Zrotation
									JOINT LeftArm
									{
										OFFSET 8.771219 -2.981674 -0.026999
										CHANNELS 3 Xrotation Yrotation Zrotation
										JOINT LeftForeArm
										{
											OFFSET 8.512804 0.000000 -0.000000
											CHANNELS 3 Xrotation Yrotation Zrotation
											JOINT LeftHand
											{
												OFFSET 18.484802 0.000000 -0.000000
												CHANNELS 3 Xrotation Yrotation Zrotation
												End Site
												{
													OFFSET 0 0 0
												}
											}
										}
									}
								}
							}
						}
						JOINT RightShoulder_virtual
						{
							OFFSET 0.000000 0.000000 0.000000
							CHANNELS 3 Xrotation Yrotation Zrotation
							JOINT RightShoulder
							{
								OFFSET -2.196100 4.412496 0.070690
								CHANNELS 3 Xrotation Yrotation Zrotation
								JOINT RightShoulder_split
								{
									OFFSET -2.196100 4.412496 0.070690
									CHANNELS 3 Xrotation Yrotation Zrotation
									JOINT RightArm
									{
										OFFSET -8.771282 -2.981682 -0.094208
										CHANNELS 3 Xrotation Yrotation Zrotation
										JOINT RightForeArm
										{
											OFFSET -8.494598 0.000000 0.000000
											CHANNELS 3 Xrotation Yrotation Zrotation
											JOINT RightHand
											{
												OFFSET -18.483803 0.000000 0.000001
												CHANNELS 3 Xrotation Yrotation Zrotation
												End Site
												{
													OFFSET 0 0 0
												}
											}
										}
									}
								}
							}
						}
					}
				}
			}
		}
	}
}
MOTION
Frames: 8
Frame Time: 0.03333333
-0.216680 33.463825 -0.562544 0.000000 0.000000 0.000000 -0.316535 -0.853252 0.794510 -13.451467 11.388949 13.613731 22.269168 -11.160147 -0.852333 -10.119483 1.477299 -8.659882 -0.641592 0.000003 0.000001 0.000000 0.000000 0.000000 -0.316535 -0.853252 0.794510 -12.021831 -7.504564 -18.479422 22.586213 8.629214 4.845824 -11.696509 -2.010526 9.266987 0.000012 -0.000001 0.000002 0.000000 0.000000 0.000000 -0.316535 -0.853252 0.794510 0.601490 0.533103 0.206753 0.948880 0.543752 -0.036077 0.000000 0.000000 0.000000 0.000000 0.000000 0.000000 0.949055 0.535715 -0.036774 1.759489 -1.272664 -0.666066 -4.887638 -8.012347 2.592187 0.000000 0.000000 0.000000 0.949055 0.535715 -0.036774 0.691653 -2.499316 -11.191466 0.000000 0.000000 0.000000 5.273940 -17.247117 -62.895298 0.000013 -21.850205 0.000008 0.000000 0.000000 0.000000 0.949055 0.535715 -0.036774 0.450402 7.851261 13.847194 0.000000 0.000000 0.000000 5.786529 9.805993 61.054911 -0.000022 23.253227 0.000020 0.000000 0.000000 0.000000 
-0.217893 33.463383 -0.541332 0.000000 0.000000 0.000000 -0.316533 -0.890282 0.794096 -13.373841 11.408339 13.620002 22.246245 -11.164454 -0.851960 -10.171154 1.515029 -8.669587 -0.655518 0.000004 -0.000002 0.000000 0.000000 0.000000 -0.316533 -0.890282 0.794096 -11.986361 -7.488915 -18.472364 22.576934 8.623616 4.822164 -11.720306 -2.014781 9.291380 -0.000128 0.000004 0.000003 0.000000 0.000000 0.000000 -0.316533 -0.890282 0.794096 0.601482 0.537046 0.185662 0.948881 0.543752 -0.047614 0.000000 0.000000 0.000000 0.000000 0.000000 0.000000 0.949056 0.535716 -0.042374 1.780577 -1.212659 -0.622516 -4.885160 -7.647344 2.553905 0.000000 0.000000 0.000000 0.949056 0.535716 -0.042374 0.692008 -2.516173 -11.214366 0.000000 0.000000 0.000000 5.525717 -17.246014 -62.798870 -0.000014 -22.198161 -0.000018 0.000000 0.000000 0.000000 0.949056 0.535716 -0.042374 0.449475 7.849644 13.856979 0.000000 0.000000 0.000000 6.043046 9.889813 61.153791 0.000004 23.361533 -0.000012 0.000000 0.000000 0.000000 
-0.218567 33.456352 -0.521120 0.000000 0.000000 0.000000 -0.311413 -0.904802 0.778773 -13.375711 11.393922 13.653337 22.365366 -11.174959 -0.851374 -10.294492 1.536968 -8.666333 -0.659556 0.000003 0.000000 0.000000 0.000000 0.000000 -0.311413 -0.904802 0.778773 -11.952436 -7.432005 -18.433286 22.646827 8.559975 4.792404 -11.803947 -2.031107 9.316527 0.000008 -0.000003 -0.000001 0.000000 0.000000 0.000000 -0.311413 -0.904802 0.778773 0.610657 0.551038 0.176471 0.963187 0.543752 -0.069053 0.000000 0.000000 0.000000 0.000000 0.000000 0.000000 0.963427 0.544779 -0.063333 1.815913 -1.132038 -0.633814 -5.016605 -7.264912 2.573067 0.000000 0.000000 0.000000 0.963427 0.544779 -0.063333 0.687643 -2.578771 -11.358220 0.000000 0.000000 0.000000 5.493326 -17.548539 -62.451186 -0.000006 -22.646998 -0.000014 0.000000 0.000000 0.000000 0.963427 0.544779 -0.063333 0.440792 7.832458 14.103890 0.000000 0.000000 0.000000 6.457134 10.074932 60.890447 0.000009 23.759047 -0.000011 0.000000 0.000000 0.000000 
-0.215513 33.431427 -0.520430 0.000000 0.000000 0.000000 -0.179408 -0.874422 0.713213 -13.784786 11.188405 13.712036 22.953959 -11.183133 -0.760931 -10.587095 1.644460 -8.666083 -0.610967 0.000002 -0.000001 0.000000 0.000000 0.000000 -0.179408 -0.874422 0.713213 -12.138751 -7.289756 -18.350068 22.867526 8.440330 4.786755 -11.919277 -2.029762 9.332372 -0.000016 -0.000000 0.000003 0.000000 0.000000 0.000000 -0.179408 -0.874422 0.713213 0.631958 0.583328 0.204601 0.987531 0.553732 -0.090297 0.000000 0.000000 0.000000 0.000000 0.000000 0.000000 0.987944 0.554976 -0.083196 1.919358 -1.037445 -0.702096 -5.699608 -6.953683 2.772632 0.000000 0.000000 0.000000 0.987944 0.554976 -0.083196 0.671085 -2.450097 -11.354305 0.000000 0.000000 0.000000 3.831875 -18.217942 -61.992545 -0.000011 -22.598400 -0.000008 0.000000 0.000000 0.000000 0.987944 0.554976 -0.083196 0.426412 7.793746 14.551499 0.000000 0.000000 0.000000 6.731396 10.282461 59.960619 -0.000001 25.166860 -0.000002 0.000000 0.000000 0.000000 
-0.201768 33.410748 -0.589720 0.000000 0.000000 0.000000 0.450086 -0.776307 0.528239 -15.117925 10.450219 13.676253 24.055313 -10.965783 -0.351364 -10.882318 1.919656 -8.869706 -0.447916 0.000003 0.000000 0.000000 0.000000 0.000000 0.450086 -0.776307 0.528239 -12.939539 -7.285332 -18.129153 22.802971 8.321113 4.807288 -11.635984 -1.973929 9.313163 -0.000033 0.000000 -0.000002 0.000000 0.000000 0.000000 0.450086 -0.776307 0.528239 0.612905 0.663787 0.336954 0.980517 0.607874 -0.063871 0.000000 0.000000 0.000000 0.000000 0.000000 0.000000 0.981023 0.608908 -0.054973 1.943206 -0.973705 -0.731148 -7.084657 -6.742596 2.888063 0.000000 0.000000 0.000000 0.981023 0.608908 -0.054973 0.657626 -2.243738 -10.815262 0.000000 0.000000 0.000000 0.915710 -18.654935 -61.320824 0.000013 -24.449871 0.000014 0.000000 0.000000 0.000000 0.981023 0.608908 -0.054973 0.429743 7.719693 14.670208 0.000000 0.000000 0.000000 5.866563 10.717022 58.540766 0.000010 28.123456 -0.000016 0.000000 0.000000 0.000000 
-0.171241 33.302586 -0.797865 0.000000 0.000000 0.000000 1.865101 -0.647095 0.118030 -18.573919 8.717650 13.849915 27.240420 -10.175133 0.341024 -11.812260 2.123056 -9.594291 -0.058469 0.000001 0.000001 0.000000 0.000000 0.000000 1.865101 -0.647095 0.118030 -15.339251 -7.122547 -17.708671 23.602328 8.168622 4.794948 -11.337463 -1.876544 9.244500 0.000015 0.000000 0.000001 0.000000 0.000000 0.000000 1.865101 -0.647095 0.118030 0.602457 0.823728 0.764352 1.011171 0.786450 0.009448 0.000000 0.000000 0.000000 0.000000 0.000000 0.000000 1.011392 0.787397 0.017667 1.488730 -0.939992 -0.731100 -9.084091 -6.536147 2.688178 0.000000 0.000000 0.000000 1.011392 0.787397 0.017667 0.685929 -2.226720 -10.294872 0.000000 0.000000 0.000000 -2.552051 -18.217877 -60.016148 -0.000002 -31.850764 0.000001 0.000000 0.000000 0.000000 1.011392 0.787397 0.017667 0.461283 7.616654 14.254958 0.000000 0.000000 0.000000 3.748785 11.962941 56.087164 0.000012 34.424628 -0.000049 0.000000 0.000000 0.000000 
-0.128279 32.950798 -1.147614 0.000000 0.000000 0.000000 3.947593 -0.561065 -0.155718 -24.147102 6.456039 14.052387 32.770995 -9.333024 0.772715 -13.541196 2.415280 -10.146804 0.048297 -0.000054 0.059139 0.000000 0.000000 0.000000 3.947593 -0.561065 -0.155718 -21.187342 -6.368357 -16.964376 29.507834 8.460502 3.359076 -13.277359 -2.027722 8.501192 0.167110 -0.000560 0.201384 0.000000 0.000000 0.000000 3.947593 -0.561065 -0.155718 0.760898 0.984668 1.141866 1.206394 1.008381 -0.000787 0.000000 0.000000 0.000000 0.000000 0.000000 0.000000 1.205759 1.010496 -0.000468 0.358479 -0.875335 -0.768115 -11.936007 -6.229144 2.581918 0.000000 0.000000 0.000000 1.205759 1.010496 -0.000468 0.740219 -2.156144 -10.150190 0.000000 0.000000 0.000000 -8.573574 -17.516502 -58.982665 -0.000003 -42.667710 -0.000006 0.000000 0.000000 0.000000 1.205759 1.010496 -0.000468 0.500810 7.552863 13.547239 0.000000 0.000000 0.000000 -0.406568 13.818756 52.393333 -0.000003 43.577082 0.000004 0.000000 0.000000 0.000000 
-0.138355 32.332165 -1.562428 0.000000 0.000000 0.000000 6.419099 -0.516952 -0.154968 -30.898359 4.370084 14.382172 39.536444 -8.786476 0.687796 -15.717102 2.730983 -10.304544 0.045387 -0.000044 0.055777 0.000000 0.000000 0.000000 6.419099 -0.516952 -0.154968 -28.589263 -5.681771 -17.229953 37.023703 9.453007 2.429168 -15.822591 -2.191782 8.264543 0.162795 -0.000527 0.196212 0.000000 0.000000 0.000000 6.419099 -0.516952 -0.154968 1.082310 1.057341 1.151079 1.523301 1.134779 -0.076936 0.000000 0.000000 0.000000 0.000000 0.000000 0.000000 1.521103 1.138434 -0.089885 -1.103086 -0.797271 -0.718120 -15.470061 -5.849631 2.744157 0.000000 0.000000 0.000000 1.521103 1.138434 -0.089885 0.757199 -2.243500 -9.554309 0.000000 0.000000 0.000000 -17.580992 -17.053271 -59.125089 0.000007 -52.773293 -0.000003 0.000000 0.000000 0.000000 1.521103 1.138434 -0.089885 0.527229 7.513123 12.884872 0.000000 0.000000 0.000000 -7.418218 15.933202 48.326061 0.000007 52.919179 -0.000018 0.000000 0.000000 0.000000 
